<mxfile host="app.diagrams.net" modified="2024-01-13T08:44:48.631Z" agent="Mozilla/5.0 (Windows NT 10.0; Win64; x64; rv:121.0) Gecko/20100101 Firefox/121.0" etag="lZK1zD0FrM8nAYAXVnSl" version="22.1.18" type="device">
  <diagram id="BC79CML7Z33H3tk79keH" name="Strona-1">
    <mxGraphModel dx="1434" dy="698" grid="1" gridSize="10" guides="1" tooltips="1" connect="1" arrows="1" fold="1" page="1" pageScale="1" pageWidth="827" pageHeight="1169" math="0" shadow="0">
      <root>
        <mxCell id="0" />
        <mxCell id="1" parent="0" />
        <mxCell id="yx_y9nf9KPECeYAKMQg5-1" value="" style="whiteSpace=wrap;html=1;aspect=fixed;" parent="1" vertex="1">
          <mxGeometry x="110" y="60" width="680" height="680" as="geometry" />
        </mxCell>
        <mxCell id="yx_y9nf9KPECeYAKMQg5-2" value="&lt;div style=&quot;font-size: 18px;&quot; align=&quot;center&quot;&gt;&lt;font style=&quot;font-size: 18px;&quot;&gt;&lt;b&gt;FarmGuider &lt;font style=&quot;font-size: 18px;&quot;&gt;- Moduł Uprawowy&lt;br&gt;&lt;/font&gt;&lt;/b&gt;&lt;/font&gt;&lt;/div&gt;" style="text;html=1;strokeColor=none;fillColor=none;spacing=5;spacingTop=-20;whiteSpace=wrap;overflow=hidden;rounded=0;align=center;" parent="1" vertex="1">
          <mxGeometry x="295.63" y="80" width="308.75" height="30" as="geometry" />
        </mxCell>
        <mxCell id="yx_y9nf9KPECeYAKMQg5-13" value="&lt;font style=&quot;font-size: 12px;&quot;&gt;9. Zarządzanie uprawami&lt;br&gt;&lt;/font&gt;&lt;font style=&quot;font-size: 12px;&quot;&gt;(Moduł uprawowy)&lt;/font&gt;" style="ellipse;whiteSpace=wrap;html=1;fontSize=18;" parent="1" vertex="1">
          <mxGeometry x="150.63" y="360" width="160" height="80" as="geometry" />
        </mxCell>
        <mxCell id="VzAytHsf84ptwid28OPW-6" value="Użytkownik" style="shape=umlActor;verticalLabelPosition=bottom;verticalAlign=top;html=1;outlineConnect=0;fontSize=18;" parent="1" vertex="1">
          <mxGeometry x="20" y="355" width="50" height="90" as="geometry" />
        </mxCell>
        <mxCell id="VzAytHsf84ptwid28OPW-16" style="edgeStyle=orthogonalEdgeStyle;rounded=0;orthogonalLoop=1;jettySize=auto;html=1;entryX=0;entryY=0.5;entryDx=0;entryDy=0;fontSize=12;endArrow=none;endFill=0;" parent="1" target="yx_y9nf9KPECeYAKMQg5-13" edge="1">
          <mxGeometry relative="1" as="geometry">
            <mxPoint x="80" y="400" as="sourcePoint" />
            <Array as="points">
              <mxPoint x="80" y="400" />
            </Array>
            <mxPoint x="610" y="270" as="targetPoint" />
          </mxGeometry>
        </mxCell>
        <mxCell id="VzAytHsf84ptwid28OPW-18" value="&lt;font style=&quot;font-size: 12px;&quot;&gt;9.1 Zarządzanie &lt;br&gt;polem&lt;br&gt;&lt;/font&gt;" style="ellipse;whiteSpace=wrap;html=1;fontSize=18;" parent="1" vertex="1">
          <mxGeometry x="370" y="220" width="130" height="80" as="geometry" />
        </mxCell>
        <mxCell id="VzAytHsf84ptwid28OPW-29" value="&lt;div&gt;&lt;font style=&quot;font-size: 12px;&quot;&gt;9.1.1 Dodanie pola&lt;/font&gt;&lt;/div&gt;" style="ellipse;whiteSpace=wrap;html=1;fontSize=18;" parent="1" vertex="1">
          <mxGeometry x="130" y="230" width="130" height="60" as="geometry" />
        </mxCell>
        <mxCell id="VzAytHsf84ptwid28OPW-38" value="" style="endArrow=classic;html=1;rounded=0;entryX=1;entryY=0;entryDx=0;entryDy=0;exitX=0;exitY=1;exitDx=0;exitDy=0;" parent="1" source="VzAytHsf84ptwid28OPW-18" target="yx_y9nf9KPECeYAKMQg5-13" edge="1">
          <mxGeometry width="50" height="50" relative="1" as="geometry">
            <mxPoint x="370" y="210" as="sourcePoint" />
            <mxPoint x="235" y="370" as="targetPoint" />
          </mxGeometry>
        </mxCell>
        <mxCell id="VzAytHsf84ptwid28OPW-39" value="&lt;font style=&quot;font-size: 12px;&quot;&gt;&amp;lt;&amp;lt;Extends&amp;gt;&amp;gt;&lt;/font&gt;" style="edgeLabel;html=1;align=center;verticalAlign=middle;resizable=0;points=[];rotation=0;" parent="VzAytHsf84ptwid28OPW-38" vertex="1" connectable="0">
          <mxGeometry x="-0.1225" relative="1" as="geometry">
            <mxPoint as="offset" />
          </mxGeometry>
        </mxCell>
        <mxCell id="VzAytHsf84ptwid28OPW-84" value="&lt;font style=&quot;font-size: 12px;&quot;&gt;9.1.5 Zarządzanie &lt;br&gt;uprawą&lt;br&gt;&lt;/font&gt;" style="ellipse;whiteSpace=wrap;html=1;fontSize=18;" parent="1" vertex="1">
          <mxGeometry x="420" y="340" width="130" height="80" as="geometry" />
        </mxCell>
        <mxCell id="VzAytHsf84ptwid28OPW-85" value="&lt;font style=&quot;font-size: 12px;&quot;&gt;9.1.5.4 Zarządzanie &lt;br&gt;zabiegiem&lt;br&gt;&lt;/font&gt;" style="ellipse;whiteSpace=wrap;html=1;fontSize=18;" parent="1" vertex="1">
          <mxGeometry x="420" y="480" width="130" height="80" as="geometry" />
        </mxCell>
        <mxCell id="VzAytHsf84ptwid28OPW-87" value="&lt;font style=&quot;font-size: 12px;&quot;&gt;9.2 Odczyt kalendarza&lt;br&gt;upraw&lt;br&gt;&lt;/font&gt;" style="ellipse;whiteSpace=wrap;html=1;fontSize=18;" parent="1" vertex="1">
          <mxGeometry x="156.89" y="610" width="138.74" height="70" as="geometry" />
        </mxCell>
        <mxCell id="VzAytHsf84ptwid28OPW-88" value="" style="endArrow=classic;html=1;rounded=0;entryX=0.708;entryY=0.963;entryDx=0;entryDy=0;exitX=0.5;exitY=0;exitDx=0;exitDy=0;entryPerimeter=0;" parent="1" source="VzAytHsf84ptwid28OPW-84" target="VzAytHsf84ptwid28OPW-18" edge="1">
          <mxGeometry width="50" height="50" relative="1" as="geometry">
            <mxPoint x="269" y="289" as="sourcePoint" />
            <mxPoint x="242" y="371" as="targetPoint" />
          </mxGeometry>
        </mxCell>
        <mxCell id="VzAytHsf84ptwid28OPW-89" value="&lt;font style=&quot;font-size: 12px;&quot;&gt;&amp;lt;&amp;lt;Include&amp;gt;&amp;gt;&lt;/font&gt;" style="edgeLabel;html=1;align=center;verticalAlign=middle;resizable=0;points=[];rotation=0;" parent="VzAytHsf84ptwid28OPW-88" vertex="1" connectable="0">
          <mxGeometry x="-0.1225" relative="1" as="geometry">
            <mxPoint as="offset" />
          </mxGeometry>
        </mxCell>
        <mxCell id="VzAytHsf84ptwid28OPW-90" value="" style="endArrow=classic;html=1;rounded=0;entryX=0.5;entryY=1;entryDx=0;entryDy=0;exitX=0.5;exitY=0;exitDx=0;exitDy=0;" parent="1" source="VzAytHsf84ptwid28OPW-85" target="VzAytHsf84ptwid28OPW-84" edge="1">
          <mxGeometry width="50" height="50" relative="1" as="geometry">
            <mxPoint x="380" y="340" as="sourcePoint" />
            <mxPoint x="281" y="382" as="targetPoint" />
          </mxGeometry>
        </mxCell>
        <mxCell id="VzAytHsf84ptwid28OPW-91" value="&lt;font style=&quot;font-size: 12px;&quot;&gt;&amp;lt;&amp;lt;Include&amp;gt;&amp;gt;&lt;/font&gt;" style="edgeLabel;html=1;align=center;verticalAlign=middle;resizable=0;points=[];rotation=0;" parent="VzAytHsf84ptwid28OPW-90" vertex="1" connectable="0">
          <mxGeometry x="-0.1225" relative="1" as="geometry">
            <mxPoint as="offset" />
          </mxGeometry>
        </mxCell>
        <mxCell id="VzAytHsf84ptwid28OPW-92" value="" style="endArrow=classic;html=1;rounded=0;entryX=0.5;entryY=1;entryDx=0;entryDy=0;exitX=0.5;exitY=0;exitDx=0;exitDy=0;" parent="1" source="VzAytHsf84ptwid28OPW-87" target="yx_y9nf9KPECeYAKMQg5-13" edge="1">
          <mxGeometry width="50" height="50" relative="1" as="geometry">
            <mxPoint x="399" y="472" as="sourcePoint" />
            <mxPoint x="299" y="422" as="targetPoint" />
          </mxGeometry>
        </mxCell>
        <mxCell id="VzAytHsf84ptwid28OPW-93" value="&lt;font style=&quot;font-size: 12px;&quot;&gt;&amp;lt;&amp;lt;Extends&amp;gt;&amp;gt;&lt;/font&gt;" style="edgeLabel;html=1;align=center;verticalAlign=middle;resizable=0;points=[];rotation=0;" parent="VzAytHsf84ptwid28OPW-92" vertex="1" connectable="0">
          <mxGeometry x="-0.1225" relative="1" as="geometry">
            <mxPoint y="45" as="offset" />
          </mxGeometry>
        </mxCell>
        <mxCell id="VzAytHsf84ptwid28OPW-94" value="&lt;div&gt;&lt;font style=&quot;font-size: 12px;&quot;&gt;9.1.2 &lt;/font&gt;&lt;font style=&quot;font-size: 12px;&quot;&gt;Edycja pola&lt;/font&gt;&lt;/div&gt;" style="ellipse;whiteSpace=wrap;html=1;fontSize=18;" parent="1" vertex="1">
          <mxGeometry x="180" y="140" width="130" height="60" as="geometry" />
        </mxCell>
        <mxCell id="VzAytHsf84ptwid28OPW-95" value="&lt;div&gt;&lt;font style=&quot;font-size: 12px;&quot;&gt;9.1.3 &lt;/font&gt;&lt;font style=&quot;font-size: 12px;&quot;&gt;Usunięcie pola&lt;/font&gt;&lt;/div&gt;" style="ellipse;whiteSpace=wrap;html=1;fontSize=18;" parent="1" vertex="1">
          <mxGeometry x="370" y="110" width="130" height="60" as="geometry" />
        </mxCell>
        <mxCell id="VzAytHsf84ptwid28OPW-96" value="&lt;div&gt;&lt;font style=&quot;font-size: 12px;&quot;&gt;9.1.4 &lt;/font&gt;&lt;font style=&quot;font-size: 12px;&quot;&gt;Wyszukanie pól&lt;/font&gt;&lt;/div&gt;" style="ellipse;whiteSpace=wrap;html=1;fontSize=18;" parent="1" vertex="1">
          <mxGeometry x="540" y="120" width="130" height="60" as="geometry" />
        </mxCell>
        <mxCell id="VzAytHsf84ptwid28OPW-97" value="&lt;div&gt;&lt;font style=&quot;font-size: 12px;&quot;&gt;9.1.6 Odczyt wykresu efektywności upraw&lt;br&gt;&lt;/font&gt;&lt;/div&gt;" style="ellipse;whiteSpace=wrap;html=1;fontSize=18;" parent="1" vertex="1">
          <mxGeometry x="250" y="460" width="150" height="90" as="geometry" />
        </mxCell>
        <mxCell id="VzAytHsf84ptwid28OPW-98" value="&lt;font style=&quot;font-size: 12px;&quot;&gt;9.1.5.1 Dodanie uprawy&lt;br&gt;&lt;/font&gt;" style="ellipse;whiteSpace=wrap;html=1;fontSize=18;" parent="1" vertex="1">
          <mxGeometry x="630" y="280" width="130" height="60" as="geometry" />
        </mxCell>
        <mxCell id="VzAytHsf84ptwid28OPW-99" value="&lt;div&gt;&lt;font style=&quot;font-size: 12px;&quot;&gt;9.1.5.2 &lt;/font&gt;&lt;font style=&quot;font-size: 12px;&quot;&gt;Dodanie&lt;br&gt;zbioru uprawy&lt;br&gt;&lt;/font&gt;&lt;/div&gt;" style="ellipse;whiteSpace=wrap;html=1;fontSize=18;" parent="1" vertex="1">
          <mxGeometry x="650" y="350" width="130" height="60" as="geometry" />
        </mxCell>
        <mxCell id="VzAytHsf84ptwid28OPW-100" value="&lt;div&gt;&lt;font style=&quot;font-size: 12px;&quot;&gt;9.1.5.3 &lt;/font&gt;&lt;font style=&quot;font-size: 12px;&quot;&gt;Usunięcie uprawy&lt;br&gt;&lt;/font&gt;&lt;/div&gt;" style="ellipse;whiteSpace=wrap;html=1;fontSize=18;" parent="1" vertex="1">
          <mxGeometry x="630" y="420" width="130" height="60" as="geometry" />
        </mxCell>
        <mxCell id="VzAytHsf84ptwid28OPW-101" value="&lt;div&gt;&lt;font style=&quot;font-size: 12px;&quot;&gt;9.1.5.4.1 Odczyt zabiegów uprawy&lt;br&gt;&lt;/font&gt;&lt;/div&gt;" style="ellipse;whiteSpace=wrap;html=1;fontSize=18;" parent="1" vertex="1">
          <mxGeometry x="640" y="570" width="130" height="60" as="geometry" />
        </mxCell>
        <mxCell id="VzAytHsf84ptwid28OPW-102" value="&lt;div&gt;&lt;font style=&quot;font-size: 12px;&quot;&gt;9.1.5.4.2 &lt;/font&gt;&lt;font style=&quot;font-size: 12px;&quot;&gt;Dodanie zabiegu&lt;br&gt;&lt;/font&gt;&lt;/div&gt;" style="ellipse;whiteSpace=wrap;html=1;fontSize=18;" parent="1" vertex="1">
          <mxGeometry x="604.38" y="640" width="130" height="60" as="geometry" />
        </mxCell>
        <mxCell id="VzAytHsf84ptwid28OPW-103" value="&lt;div&gt;&lt;font style=&quot;font-size: 12px;&quot;&gt;9.1.5.4.3 &lt;/font&gt;&lt;font style=&quot;font-size: 12px;&quot;&gt;Edycja zabiegu&lt;br&gt;&lt;/font&gt;&lt;/div&gt;" style="ellipse;whiteSpace=wrap;html=1;fontSize=18;" parent="1" vertex="1">
          <mxGeometry x="480" y="670" width="130" height="60" as="geometry" />
        </mxCell>
        <mxCell id="VzAytHsf84ptwid28OPW-104" value="&lt;div&gt;&lt;font style=&quot;font-size: 12px;&quot;&gt;9.1.5.4.4 &lt;/font&gt;&lt;font style=&quot;font-size: 12px;&quot;&gt;Usunięcie zabiegu &lt;/font&gt;&lt;/div&gt;" style="ellipse;whiteSpace=wrap;html=1;fontSize=18;" parent="1" vertex="1">
          <mxGeometry x="340" y="660" width="130" height="60" as="geometry" />
        </mxCell>
        <mxCell id="VzAytHsf84ptwid28OPW-105" value="" style="endArrow=classic;html=1;rounded=0;entryX=0;entryY=0.5;entryDx=0;entryDy=0;" parent="1" target="VzAytHsf84ptwid28OPW-18" edge="1">
          <mxGeometry width="50" height="50" relative="1" as="geometry">
            <mxPoint x="260" y="260" as="sourcePoint" />
            <mxPoint x="242" y="371" as="targetPoint" />
          </mxGeometry>
        </mxCell>
        <mxCell id="VzAytHsf84ptwid28OPW-106" value="&lt;font style=&quot;font-size: 12px;&quot;&gt;&amp;lt;&amp;lt;Extends&amp;gt;&amp;gt;&lt;/font&gt;" style="edgeLabel;html=1;align=center;verticalAlign=middle;resizable=0;points=[];rotation=0;" parent="VzAytHsf84ptwid28OPW-105" vertex="1" connectable="0">
          <mxGeometry x="-0.1225" relative="1" as="geometry">
            <mxPoint as="offset" />
          </mxGeometry>
        </mxCell>
        <mxCell id="VzAytHsf84ptwid28OPW-107" value="" style="endArrow=classic;html=1;rounded=0;entryX=0;entryY=0;entryDx=0;entryDy=0;exitX=1;exitY=1;exitDx=0;exitDy=0;" parent="1" source="VzAytHsf84ptwid28OPW-94" target="VzAytHsf84ptwid28OPW-18" edge="1">
          <mxGeometry width="50" height="50" relative="1" as="geometry">
            <mxPoint x="270" y="270" as="sourcePoint" />
            <mxPoint x="380" y="270" as="targetPoint" />
          </mxGeometry>
        </mxCell>
        <mxCell id="VzAytHsf84ptwid28OPW-108" value="&lt;font style=&quot;font-size: 12px;&quot;&gt;&amp;lt;&amp;lt;Extends&amp;gt;&amp;gt;&lt;/font&gt;" style="edgeLabel;html=1;align=center;verticalAlign=middle;resizable=0;points=[];rotation=0;" parent="VzAytHsf84ptwid28OPW-107" vertex="1" connectable="0">
          <mxGeometry x="-0.1225" relative="1" as="geometry">
            <mxPoint as="offset" />
          </mxGeometry>
        </mxCell>
        <mxCell id="VzAytHsf84ptwid28OPW-109" value="" style="endArrow=classic;html=1;rounded=0;entryX=0.5;entryY=0;entryDx=0;entryDy=0;exitX=0.5;exitY=1;exitDx=0;exitDy=0;" parent="1" source="VzAytHsf84ptwid28OPW-95" target="VzAytHsf84ptwid28OPW-18" edge="1">
          <mxGeometry width="50" height="50" relative="1" as="geometry">
            <mxPoint x="301" y="201" as="sourcePoint" />
            <mxPoint x="399" y="242" as="targetPoint" />
          </mxGeometry>
        </mxCell>
        <mxCell id="VzAytHsf84ptwid28OPW-110" value="&lt;font style=&quot;font-size: 12px;&quot;&gt;&amp;lt;&amp;lt;Extends&amp;gt;&amp;gt;&lt;/font&gt;" style="edgeLabel;html=1;align=center;verticalAlign=middle;resizable=0;points=[];rotation=0;" parent="VzAytHsf84ptwid28OPW-109" vertex="1" connectable="0">
          <mxGeometry x="-0.1225" relative="1" as="geometry">
            <mxPoint as="offset" />
          </mxGeometry>
        </mxCell>
        <mxCell id="VzAytHsf84ptwid28OPW-111" value="" style="endArrow=classic;html=1;rounded=0;entryX=1;entryY=0;entryDx=0;entryDy=0;exitX=0;exitY=1;exitDx=0;exitDy=0;" parent="1" source="VzAytHsf84ptwid28OPW-96" target="VzAytHsf84ptwid28OPW-18" edge="1">
          <mxGeometry width="50" height="50" relative="1" as="geometry">
            <mxPoint x="445" y="180" as="sourcePoint" />
            <mxPoint x="445" y="230" as="targetPoint" />
          </mxGeometry>
        </mxCell>
        <mxCell id="VzAytHsf84ptwid28OPW-112" value="&lt;font style=&quot;font-size: 12px;&quot;&gt;&amp;lt;&amp;lt;Extends&amp;gt;&amp;gt;&lt;/font&gt;" style="edgeLabel;html=1;align=center;verticalAlign=middle;resizable=0;points=[];rotation=0;" parent="VzAytHsf84ptwid28OPW-111" vertex="1" connectable="0">
          <mxGeometry x="-0.1225" relative="1" as="geometry">
            <mxPoint as="offset" />
          </mxGeometry>
        </mxCell>
        <mxCell id="VzAytHsf84ptwid28OPW-113" value="" style="endArrow=classic;html=1;rounded=0;entryX=0.354;entryY=1.013;entryDx=0;entryDy=0;exitX=0.5;exitY=0;exitDx=0;exitDy=0;entryPerimeter=0;" parent="1" source="VzAytHsf84ptwid28OPW-97" target="VzAytHsf84ptwid28OPW-18" edge="1">
          <mxGeometry width="50" height="50" relative="1" as="geometry">
            <mxPoint x="569" y="181" as="sourcePoint" />
            <mxPoint x="491" y="242" as="targetPoint" />
          </mxGeometry>
        </mxCell>
        <mxCell id="VzAytHsf84ptwid28OPW-114" value="&lt;font style=&quot;font-size: 12px;&quot;&gt;&amp;lt;&amp;lt;Extends&amp;gt;&amp;gt;&lt;/font&gt;" style="edgeLabel;html=1;align=center;verticalAlign=middle;resizable=0;points=[];rotation=0;" parent="VzAytHsf84ptwid28OPW-113" vertex="1" connectable="0">
          <mxGeometry x="-0.1225" relative="1" as="geometry">
            <mxPoint as="offset" />
          </mxGeometry>
        </mxCell>
        <mxCell id="VzAytHsf84ptwid28OPW-115" value="" style="endArrow=classic;html=1;rounded=0;entryX=0.985;entryY=0.3;entryDx=0;entryDy=0;exitX=0.015;exitY=0.667;exitDx=0;exitDy=0;entryPerimeter=0;exitPerimeter=0;" parent="1" source="VzAytHsf84ptwid28OPW-98" target="VzAytHsf84ptwid28OPW-84" edge="1">
          <mxGeometry width="50" height="50" relative="1" as="geometry">
            <mxPoint x="440" y="410" as="sourcePoint" />
            <mxPoint x="300" y="410" as="targetPoint" />
          </mxGeometry>
        </mxCell>
        <mxCell id="VzAytHsf84ptwid28OPW-116" value="&lt;font style=&quot;font-size: 12px;&quot;&gt;&amp;lt;&amp;lt;Extends&amp;gt;&amp;gt;&lt;/font&gt;" style="edgeLabel;html=1;align=center;verticalAlign=middle;resizable=0;points=[];rotation=0;" parent="VzAytHsf84ptwid28OPW-115" vertex="1" connectable="0">
          <mxGeometry x="-0.1225" relative="1" as="geometry">
            <mxPoint as="offset" />
          </mxGeometry>
        </mxCell>
        <mxCell id="VzAytHsf84ptwid28OPW-117" value="" style="endArrow=classic;html=1;rounded=0;entryX=1;entryY=0.5;entryDx=0;entryDy=0;exitX=0;exitY=0.5;exitDx=0;exitDy=0;" parent="1" source="VzAytHsf84ptwid28OPW-99" target="VzAytHsf84ptwid28OPW-84" edge="1">
          <mxGeometry width="50" height="50" relative="1" as="geometry">
            <mxPoint x="652" y="360" as="sourcePoint" />
            <mxPoint x="568" y="394" as="targetPoint" />
          </mxGeometry>
        </mxCell>
        <mxCell id="VzAytHsf84ptwid28OPW-118" value="&lt;font style=&quot;font-size: 12px;&quot;&gt;&amp;lt;&amp;lt;Extends&amp;gt;&amp;gt;&lt;/font&gt;" style="edgeLabel;html=1;align=center;verticalAlign=middle;resizable=0;points=[];rotation=0;" parent="VzAytHsf84ptwid28OPW-117" vertex="1" connectable="0">
          <mxGeometry x="-0.1225" relative="1" as="geometry">
            <mxPoint as="offset" />
          </mxGeometry>
        </mxCell>
        <mxCell id="VzAytHsf84ptwid28OPW-119" value="" style="endArrow=classic;html=1;rounded=0;entryX=0.946;entryY=0.75;entryDx=0;entryDy=0;exitX=0.008;exitY=0.3;exitDx=0;exitDy=0;entryPerimeter=0;exitPerimeter=0;" parent="1" source="VzAytHsf84ptwid28OPW-100" target="VzAytHsf84ptwid28OPW-84" edge="1">
          <mxGeometry width="50" height="50" relative="1" as="geometry">
            <mxPoint x="660" y="410" as="sourcePoint" />
            <mxPoint x="554" y="410" as="targetPoint" />
          </mxGeometry>
        </mxCell>
        <mxCell id="VzAytHsf84ptwid28OPW-120" value="&lt;font style=&quot;font-size: 12px;&quot;&gt;&amp;lt;&amp;lt;Extends&amp;gt;&amp;gt;&lt;/font&gt;" style="edgeLabel;html=1;align=center;verticalAlign=middle;resizable=0;points=[];rotation=0;" parent="VzAytHsf84ptwid28OPW-119" vertex="1" connectable="0">
          <mxGeometry x="-0.1225" relative="1" as="geometry">
            <mxPoint as="offset" />
          </mxGeometry>
        </mxCell>
        <mxCell id="VzAytHsf84ptwid28OPW-121" value="" style="endArrow=classic;html=1;rounded=0;entryX=0.985;entryY=0.65;entryDx=0;entryDy=0;exitX=0.031;exitY=0.25;exitDx=0;exitDy=0;exitPerimeter=0;entryPerimeter=0;" parent="1" source="VzAytHsf84ptwid28OPW-101" target="VzAytHsf84ptwid28OPW-85" edge="1">
          <mxGeometry width="50" height="50" relative="1" as="geometry">
            <mxPoint x="641" y="468" as="sourcePoint" />
            <mxPoint x="547" y="430" as="targetPoint" />
          </mxGeometry>
        </mxCell>
        <mxCell id="VzAytHsf84ptwid28OPW-122" value="&lt;font style=&quot;font-size: 12px;&quot;&gt;&amp;lt;&amp;lt;Extends&amp;gt;&amp;gt;&lt;/font&gt;" style="edgeLabel;html=1;align=center;verticalAlign=middle;resizable=0;points=[];rotation=0;" parent="VzAytHsf84ptwid28OPW-121" vertex="1" connectable="0">
          <mxGeometry x="-0.1225" relative="1" as="geometry">
            <mxPoint as="offset" />
          </mxGeometry>
        </mxCell>
        <mxCell id="VzAytHsf84ptwid28OPW-123" value="" style="endArrow=classic;html=1;rounded=0;entryX=1;entryY=1;entryDx=0;entryDy=0;exitX=0.289;exitY=0;exitDx=0;exitDy=0;exitPerimeter=0;" parent="1" source="VzAytHsf84ptwid28OPW-102" target="VzAytHsf84ptwid28OPW-85" edge="1">
          <mxGeometry width="50" height="50" relative="1" as="geometry">
            <mxPoint x="654" y="595" as="sourcePoint" />
            <mxPoint x="538" y="562" as="targetPoint" />
          </mxGeometry>
        </mxCell>
        <mxCell id="VzAytHsf84ptwid28OPW-124" value="&lt;font style=&quot;font-size: 12px;&quot;&gt;&amp;lt;&amp;lt;Extends&amp;gt;&amp;gt;&lt;/font&gt;" style="edgeLabel;html=1;align=center;verticalAlign=middle;resizable=0;points=[];rotation=0;" parent="VzAytHsf84ptwid28OPW-123" vertex="1" connectable="0">
          <mxGeometry x="-0.1225" relative="1" as="geometry">
            <mxPoint as="offset" />
          </mxGeometry>
        </mxCell>
        <mxCell id="VzAytHsf84ptwid28OPW-125" value="" style="endArrow=classic;html=1;rounded=0;entryX=0.654;entryY=0.975;entryDx=0;entryDy=0;exitX=0.374;exitY=-0.05;exitDx=0;exitDy=0;exitPerimeter=0;entryPerimeter=0;" parent="1" source="VzAytHsf84ptwid28OPW-103" target="VzAytHsf84ptwid28OPW-85" edge="1">
          <mxGeometry width="50" height="50" relative="1" as="geometry">
            <mxPoint x="652" y="650" as="sourcePoint" />
            <mxPoint x="521" y="578" as="targetPoint" />
          </mxGeometry>
        </mxCell>
        <mxCell id="VzAytHsf84ptwid28OPW-126" value="&lt;font style=&quot;font-size: 12px;&quot;&gt;&amp;lt;&amp;lt;Extends&amp;gt;&amp;gt;&lt;/font&gt;" style="edgeLabel;html=1;align=center;verticalAlign=middle;resizable=0;points=[];rotation=0;" parent="VzAytHsf84ptwid28OPW-125" vertex="1" connectable="0">
          <mxGeometry x="-0.1225" relative="1" as="geometry">
            <mxPoint as="offset" />
          </mxGeometry>
        </mxCell>
        <mxCell id="VzAytHsf84ptwid28OPW-127" value="" style="endArrow=classic;html=1;rounded=0;entryX=0.262;entryY=0.975;entryDx=0;entryDy=0;exitX=0.592;exitY=-0.033;exitDx=0;exitDy=0;entryPerimeter=0;exitPerimeter=0;" parent="1" source="VzAytHsf84ptwid28OPW-104" target="VzAytHsf84ptwid28OPW-85" edge="1">
          <mxGeometry width="50" height="50" relative="1" as="geometry">
            <mxPoint x="539" y="677" as="sourcePoint" />
            <mxPoint x="495" y="588" as="targetPoint" />
          </mxGeometry>
        </mxCell>
        <mxCell id="VzAytHsf84ptwid28OPW-128" value="&lt;font style=&quot;font-size: 12px;&quot;&gt;&amp;lt;&amp;lt;Extends&amp;gt;&amp;gt;&lt;/font&gt;" style="edgeLabel;html=1;align=center;verticalAlign=middle;resizable=0;points=[];rotation=0;" parent="VzAytHsf84ptwid28OPW-127" vertex="1" connectable="0">
          <mxGeometry x="-0.1225" relative="1" as="geometry">
            <mxPoint as="offset" />
          </mxGeometry>
        </mxCell>
        <mxCell id="_wD3rK-EPYVlkTO_7S9Q-1" value="" style="endArrow=classic;html=1;rounded=0;entryX=0;entryY=1;entryDx=0;entryDy=0;exitX=1;exitY=0;exitDx=0;exitDy=0;" parent="1" source="VzAytHsf84ptwid28OPW-97" target="VzAytHsf84ptwid28OPW-84" edge="1">
          <mxGeometry width="50" height="50" relative="1" as="geometry">
            <mxPoint x="335" y="470" as="sourcePoint" />
            <mxPoint x="426" y="311" as="targetPoint" />
          </mxGeometry>
        </mxCell>
        <mxCell id="_wD3rK-EPYVlkTO_7S9Q-2" value="&lt;font style=&quot;font-size: 12px;&quot;&gt;&amp;lt;&amp;lt;Include&amp;gt;&amp;gt;&lt;/font&gt;" style="edgeLabel;html=1;align=center;verticalAlign=middle;resizable=0;points=[];rotation=0;" parent="_wD3rK-EPYVlkTO_7S9Q-1" vertex="1" connectable="0">
          <mxGeometry x="-0.1225" relative="1" as="geometry">
            <mxPoint as="offset" />
          </mxGeometry>
        </mxCell>
      </root>
    </mxGraphModel>
  </diagram>
</mxfile>
